<svg xmlns="http://www.w3.org/2000/svg" xmlns:xlink="http://www.w3.org/1999/xlink" width="1213" zoomAndPan="magnify" viewBox="0 0 909.75 259.499997" height="346" preserveAspectRatio="xMidYMid meet" version="1.0"><defs><filter x="0%" y="0%" width="100%" height="100%" id="d93194e99c"><feColorMatrix values="0 0 0 0 1 0 0 0 0 1 0 0 0 0 1 0 0 0 1 0" color-interpolation-filters="sRGB"/></filter><g/><mask id="fa42dd268d"><g filter="url(#d93194e99c)"><rect x="-90.975" width="1091.7" fill="#000000" y="-25.95" height="311.399997" fill-opacity="0.8"/></g></mask><clipPath id="ed3eb987b9"><path d="M 0.488281 0.621094 L 30.527344 0.621094 L 30.527344 30.660156 L 0.488281 30.660156 Z M 0.488281 0.621094 " clip-rule="nonzero"/></clipPath><clipPath id="a17144b6fa"><path d="M 15.507812 0.621094 C 7.210938 0.621094 0.488281 7.34375 0.488281 15.640625 C 0.488281 23.933594 7.210938 30.660156 15.507812 30.660156 C 23.800781 30.660156 30.527344 23.933594 30.527344 15.640625 C 30.527344 7.34375 23.800781 0.621094 15.507812 0.621094 Z M 15.507812 0.621094 " clip-rule="nonzero"/></clipPath><clipPath id="66dea5b252"><rect x="0" width="31" y="0" height="31"/></clipPath><clipPath id="ab92ce9f12"><path d="M 1 11 L 908 11 L 908 258.253906 L 1 258.253906 Z M 1 11 " clip-rule="nonzero"/></clipPath><clipPath id="f1378c7788"><path d="M 1 66 L 908 66 L 908 258.253906 L 1 258.253906 Z M 1 66 " clip-rule="nonzero"/></clipPath></defs><g mask="url(#fa42dd268d)"><g transform="matrix(1, 0, 0, 1, 424, 151)"><g clip-path="url(#66dea5b252)"><g clip-path="url(#ed3eb987b9)"><g clip-path="url(#a17144b6fa)"><path fill="#6f6f6f" d="M 0.488281 0.621094 L 30.527344 0.621094 L 30.527344 30.660156 L 0.488281 30.660156 Z M 0.488281 0.621094 " fill-opacity="1" fill-rule="nonzero"/></g></g><g fill="#dbdedc" fill-opacity="1"><g transform="translate(10.990025, 17.837924)"><g><path d="M 4.53125 -5.71875 C 4.53125 -5.6875 4.515625 -5.65625 4.484375 -5.65625 C 4.46875 -5.65625 4.453125 -5.6875 4.453125 -5.71875 C 4.171875 -6.71875 3.4375 -7.15625 2.59375 -7.15625 C 1.5625 -7.15625 0.703125 -6.203125 0.703125 -4.984375 C 0.703125 -3.671875 1.78125 -2.703125 2.453125 -2.0625 C 3.265625 -1.28125 4.140625 -0.203125 4.46875 0.328125 C 4.484375 0.34375 4.5 0.34375 4.515625 0.328125 C 4.84375 -0.203125 5.71875 -1.28125 6.53125 -2.0625 C 7.203125 -2.703125 8.28125 -3.65625 8.28125 -4.984375 C 8.28125 -6.203125 7.421875 -7.15625 6.390625 -7.15625 C 5.546875 -7.15625 4.796875 -6.71875 4.53125 -5.71875 Z M 4.53125 -5.71875 "/></g></g></g></g></g></g><g clip-path="url(#ab92ce9f12)"><path fill="#fcca87" d="M 907.171875 258.191406 L 907.171875 71.292969 C 851.742188 89.171875 787.230469 74.992188 734.652344 46.996094 C 714.609375 36.328125 695.328125 23.726562 673.640625 17.03125 C 618.292969 -0.046875 559.460938 24.011719 506.835938 48.203125 C 454.207031 72.390625 396.394531 97.777344 340.332031 83.214844 C 307.234375 74.625 279.222656 52.953125 247.785156 39.5 C 194.800781 16.828125 131.78125 19.046875 80.527344 45.386719 C 61.304688 55.253906 43.613281 68.347656 23.210938 75.472656 C 16.230469 77.90625 9.015625 79.457031 1.710938 80.304688 L 1.710938 258.191406 Z M 907.171875 258.191406 " fill-opacity="1" fill-rule="nonzero"/></g><g clip-path="url(#f1378c7788)"><path fill="#dd907c" d="M 828.355469 108.386719 C 777.101562 134.722656 714.070312 136.941406 661.097656 114.269531 C 629.664062 100.820312 601.648438 79.144531 568.554688 70.554688 C 512.492188 55.996094 454.675781 81.378906 402.046875 105.570312 C 349.421875 129.757812 290.589844 153.828125 235.246094 136.738281 C 213.554688 130.046875 194.273438 117.441406 174.230469 106.773438 C 121.652344 78.777344 57.140625 64.585938 1.710938 82.476562 L 1.710938 258.203125 L 907.171875 258.203125 L 907.171875 73.476562 C 899.871094 74.324219 892.640625 75.875 885.671875 78.3125 C 865.269531 85.421875 847.566406 98.503906 828.355469 108.386719 Z M 828.355469 108.386719 " fill-opacity="1" fill-rule="nonzero"/></g></svg>